<?xml version="1.0" encoding="UTF-8"?>
<svg id="icones" xmlns="http://www.w3.org/2000/svg" viewBox="0 0 32 32">
  <defs>
    <style>
      .cls-1 {
        fill: none;
        stroke: #000;
        stroke-linecap: round;
        stroke-linejoin: round;
        stroke-width: 2px;
      }
    </style>
  </defs>
  <g id="ai">
    <path class="cls-1" d="M21.43,27.72c-3.62.37-7.24.37-10.85,0-2.95-.35-5.95-3.35-6.3-6.3-.37-3.62-.37-7.24,0-10.85.35-2.95,3.35-5.95,6.3-6.3,3.62-.37,7.24-.37,10.85,0,2.95.35,5.95,3.35,6.3,6.3.37,3.62.37,7.24,0,10.85-.35,2.95-3.35,5.95-6.3,6.3Z"/>
  </g>
  <g>
    <polyline class="cls-1" points="17.52 20 14.66 12 13.33 12 10.66 20"/>
    <line class="cls-1" x1="11.55" y1="17.33" x2="16.57" y2="17.33"/>
  </g>
  <g>
    <line class="cls-1" x1="21.33" y1="20.11" x2="21.33" y2="14.67"/>
    <line class="cls-1" x1="21.33" y1="12" x2="21.33" y2="12"/>
  </g>
</svg>