<?xml version="1.0" encoding="UTF-8"?>
<svg id="icones" xmlns="http://www.w3.org/2000/svg" viewBox="0 0 32 32">
  <defs>
    <style>
      .cls-1 {
        fill: none;
        stroke: #000;
        stroke-linecap: round;
        stroke-linejoin: round;
        stroke-width: 2px;
      }
    </style>
  </defs>
  <g id="psd">
    <path class="cls-1" d="M21.42,27.72c-3.62.37-7.24.37-10.85,0-2.95-.35-5.95-3.35-6.3-6.3-.37-3.62-.37-7.24,0-10.85.35-2.95,3.35-5.95,6.3-6.3,3.62-.37,7.24-.37,10.85,0,2.95.35,5.95,3.35,6.3,6.3.37,3.62.37,7.24,0,10.85-.35,2.95-3.35,5.95-6.3,6.3Z"/>
  </g>
  <g id="user">
    <circle class="cls-1" cx="16" cy="8.94" r="1.63"/>
    <path class="cls-1" d="M18.06,16h-4.13c-.87,0-1.5-.83-1.26-1.67l.31-1.09c.18-.61.74-1.04,1.38-1.04h3.27c.64,0,1.2.42,1.38,1.04l.31,1.09c.24.84-.39,1.67-1.26,1.67Z"/>
  </g>
  <line class="cls-1" x1="10.66" y1="20" x2="21.33" y2="20"/>
  <line class="cls-1" x1="9.33" y1="24" x2="12" y2="24"/>
  <line class="cls-1" x1="14.66" y1="24" x2="17.33" y2="24"/>
  <line class="cls-1" x1="20" y1="24" x2="22.67" y2="24"/>
</svg>