<?xml version="1.0" encoding="UTF-8"?>
<svg id="icones" xmlns="http://www.w3.org/2000/svg" viewBox="0 0 32 32">
  <defs>
    <style>
      .cls-1 {
        fill: none;
        stroke: #000;
        stroke-linecap: round;
        stroke-linejoin: round;
        stroke-width: 2px;
      }
    </style>
  </defs>
  <g id="ae">
    <path class="cls-1" d="M21.43,27.72c-3.62.37-7.24.37-10.85,0-2.95-.35-5.95-3.35-6.3-6.3-.37-3.62-.37-7.24,0-10.85.35-2.95,3.35-5.95,6.3-6.3,3.62-.37,7.24-.37,10.85,0,2.95.35,5.95,3.35,6.3,6.3.37,3.62.37,7.24,0,10.85-.35,2.95-3.35,5.95-6.3,6.3Z"/>
    <g>
      <path d="M12.18,10.96c1.33,0,2.36.23,3.07.7.71.47,1.07,1.24,1.07,2.3s-.36,1.85-1.08,2.33c-.72.48-1.75.72-3.1.72h-.63v2.99h-2.01v-8.81c.44-.09.9-.15,1.39-.18.49-.03.92-.05,1.29-.05ZM12.31,12.68c-.15,0-.29,0-.43.01-.14,0-.26.02-.37.03v2.58h.63c.7,0,1.22-.09,1.57-.28.35-.19.53-.54.53-1.06,0-.25-.05-.46-.14-.62-.09-.16-.22-.29-.39-.39-.17-.1-.37-.17-.61-.21-.24-.04-.51-.06-.8-.06Z"/>
      <path d="M19.62,18.62c.35,0,.6-.03.75-.1.15-.07.22-.2.22-.4,0-.16-.09-.29-.28-.41-.19-.12-.48-.25-.86-.39-.3-.11-.57-.23-.82-.35-.24-.12-.45-.26-.63-.43s-.31-.37-.4-.6c-.09-.23-.14-.51-.14-.84,0-.64.24-1.14.71-1.51.47-.37,1.12-.55,1.95-.55.41,0,.81.04,1.19.11s.68.15.9.24l-.33,1.5c-.22-.08-.47-.15-.73-.21s-.56-.09-.88-.09c-.6,0-.9.17-.9.5,0,.08.01.15.04.21.03.06.08.12.15.17.08.06.18.12.32.18.13.06.3.14.51.21.42.16.77.31,1.04.46s.49.32.65.49.27.37.34.59c.06.21.1.46.1.75,0,.67-.25,1.17-.75,1.52-.5.34-1.21.51-2.13.51-.6,0-1.1-.05-1.5-.16-.4-.1-.68-.19-.83-.26l.32-1.56c.33.13.66.23,1.01.3.34.07.68.11,1.02.11Z"/>
    </g>
  </g>
</svg>